<svg alt="Logo Behance" class="svg-behance" version="1.1" id="Calque_1" xmlns="http://www.w3.org/2000/svg" xmlns:xlink="http://www.w3.org/1999/xlink" x="0px" y="0px"
	 viewBox="0 0 460 460" style="enable-background:new 0 0 460 460;" xml:space="preserve">
<style type="text/css">
	.svg-behance .st0{fill:#0A0A0A;}
	.svg-behance .st1{fill:#FFFFFF;}
</style>
<path class="st0" d="M355,460H105C47,460,0,413,0,355V105C0,47,47,0,105,0h250c58,0,105,47,105,105v250C460,413,413,460,355,460z"/>
<path class="st1" d="M201.2,223.1c9,5.5,16.5,11.6,21.6,20.3c14.5,24.9,5.2,58.2-20.6,73.6c-15.8,9.5-33.2,13.3-51.4,13.4
	c-21.6,0.2-43.2-0.3-64.8-0.3c-3.1,0-4.2-1.2-4.1-4.1c0-1,0-2,0-3c0-61,0-122,0-183.1c0-7.1,0-7.3,7-7.3c24.6,0,49.2-0.3,73.8,0.3
	c13.8,0.4,26.8,4.8,38,13.1c24.4,18.1,25.7,54.6,3,74.8C202.9,221.5,202.3,222.1,201.2,223.1z M122,295.7c4.3,0.3,8.2,0.7,12.2,0.7
	c6.8,0,13.7,0.2,20.4-0.6c6.2-0.8,12.4-2.2,18.2-4.4c9.4-3.7,14.2-12,13.8-22c-0.4-10.3-5.2-17.7-14.1-20.7
	c-16.4-5.7-33.4-2.9-50.4-3.6C122,262.2,122,278.5,122,295.7z M122.1,210c1.9,0,3.5,0,5.1,0c13.8,0.4,27.5,0.9,41.3,1.2
	c1.4,0,3.1-1,4.1-2.1c6.9-7.3,8.4-16.1,5.9-25.5c-2.3-8.6-9-12.9-17.1-14.9c-12.9-3.1-26-2.1-39.3-1.2
	C122.1,181.6,122.1,195.4,122.1,210z"/>
<path class="st1" d="M291.7,266c1.6,17.5,13.5,29.1,31.8,31.5c15.6,2,30.8,0.6,45.6-4.7c1.2-0.4,2.5-0.8,4.2-1.4
	c0.2,1.5,0.5,2.7,0.5,3.9c0,7.3-0.3,14.7,0.1,21.9c0.3,5.2-1.9,7.4-6.3,9c-23,8.4-46.4,9.4-69.9,2.8c-16.7-4.7-29.2-15.2-37.8-30.4
	c-7.5-13.4-10.4-28-10-43.1c0.6-25.1,8.6-47.1,28.6-63.7c25.3-21,69.2-19.3,90.1,4c14.4,16,18.5,35.5,17,56.5c-0.1,1-0.2,2-0.3,3
	c-0.9,9.2-0.9,9.6-10.5,9.8c-26.1,0.5-52.2,0.6-78.3,0.9C295,266,293.4,266,291.7,266z M291.4,237.4c14.4,0,28.2,0,41.9,0
	c3.6,0,7.3,0,10.9-0.6c1.1-0.2,3-2.6,2.7-3.4c-2-5.3-3.5-11.3-7-15.4c-7.7-9.1-18.5-9.9-29.2-6.5
	C298.8,215.3,293.8,224.9,291.4,237.4z"/>
<path class="st1" d="M318.9,154.8c-14.1,0-28.2-0.1-42.3,0.1c-4,0.1-5.7-1-5.5-5.3c0.3-6.6,0.2-13.3,0-19.9c-0.1-3.1,1-4.5,4.3-4.5
	c29.1,0.1,58.1,0.1,87.2,0c3.1,0,4.5,0.9,4.5,4.3c-0.2,7-0.2,14,0,20.9c0.1,3.7-1.6,4.5-4.8,4.4
	C347.8,154.7,333.4,154.8,318.9,154.8z"/>
</svg>
