<svg width="160" height="43" viewBox="0 0 160 43" fill="none" xmlns="http://www.w3.org/2000/svg">
<path fill-rule="evenodd" clip-rule="evenodd" d="M25.5304 7.46631C26.3902 7.46631 27.186 7.92462 27.5892 8.66966C27.9755 9.38331 27.9591 10.2243 27.5464 10.9223L27.5323 10.9458L23.9146 16.9074C23.5055 17.5816 22.767 18.0023 21.9776 18.0113L21.9518 18.0115L17.8207 18.0114L19.5377 21.8838L19.5446 21.8952L19.5551 21.9135C19.9595 22.6335 19.9496 23.4895 19.5303 24.1987L19.5162 24.2223L15.8985 30.184C15.4893 30.8581 14.7508 31.2789 13.9615 31.2879L13.9357 31.288L8.86521 31.288L5.22012 35.0753L5.21322 35.0823C4.87021 35.4258 4.40676 35.6174 3.92356 35.6174C3.80277 35.6174 3.6819 35.6054 3.56233 35.5814C2.97291 35.4629 2.4832 35.0644 2.24747 34.5149L2.24082 34.4992L0.322582 30.1613L0.312492 30.1447L0.302011 30.1268C0.30027 30.1238 0.298499 30.1206 0.29665 30.1173C-0.10772 29.3974 -0.0979261 28.5414 0.321374 27.8321L0.335502 27.8085L3.8443 22.0263L1.25884 16.1955L1.30622 16.1717L1.3055 16.1682C1.19611 15.6318 1.28417 15.0725 1.56512 14.5826L1.58064 14.556L1.59498 14.532L5.2127 8.57029C5.62186 7.89619 6.36044 7.47543 7.14972 7.46631H7.17548H25.5304ZM6.53453 31.2427L2.69069 31.2426L3.81966 33.8153L3.82244 33.8221C3.84115 33.8682 3.87142 33.8934 3.91648 33.9026C3.95667 33.9107 3.98919 33.9023 4.01994 33.8747L4.02532 33.8696L6.53453 31.2427ZM17.5229 22.3978H5.90385C5.89102 22.3978 5.87819 22.3983 5.86538 22.3991L5.86186 22.3994L9.0477 29.5783H13.9351C14.136 29.5783 14.3296 29.4723 14.4396 29.3021L14.4483 29.2882L18.0713 23.3229C18.1794 23.1449 18.1913 22.9385 18.1057 22.7527C18.0069 22.5384 17.7777 22.3978 17.5229 22.3978ZM4.69605 23.872L1.82063 28.6463C1.70621 28.8363 1.69958 29.0588 1.80204 29.2547L1.81291 29.2746L1.8187 29.2844L1.8303 29.3031L1.8533 29.3367L1.87897 29.3696L1.90353 29.3973L1.90779 29.4018L1.9244 29.4183L1.93883 29.4319C2.02928 29.5127 2.14109 29.5621 2.26441 29.5748L2.29212 29.5771L2.30816 29.5779L2.32848 29.5783H7.20721L4.69605 23.872ZM3.93994 18.023L5.20279 20.8761L5.22739 20.8679C5.44548 20.796 5.6735 20.757 5.90401 20.7535L5.93861 20.7532L17.2012 20.7532L15.9928 18.023L3.93994 18.023ZM25.4983 9.13065H13.8378L17.0246 16.3111H21.9103C22.1116 16.3111 22.3053 16.2051 22.4154 16.0348L22.4241 16.0208L26.0473 10.0556C26.1553 9.87773 26.1673 9.67143 26.0817 9.4858C25.985 9.27595 25.7632 9.13667 25.5146 9.13084L25.4983 9.13065ZM12.0528 9.13065H7.19416C6.99436 9.13065 6.80166 9.23641 6.69203 9.40642L6.68333 9.42035L3.06968 15.3857C2.9618 15.5637 2.94987 15.7705 3.03542 15.9565C3.13178 16.1662 3.35237 16.3051 3.59952 16.3109L3.61568 16.3111H15.2312L12.0528 9.13065Z" fill="#4B39EF"/>
<path fill-rule="evenodd" clip-rule="evenodd" d="M44.7865 16.4085L44.8005 12.7531H34.6074V29.3686H38.4448V23.2683H43.4674L43.4814 19.6129H38.4448V16.4085H44.7865ZM46.959 29.3686H50.5566V12.041H46.959V29.3686ZM60.9415 17.5004V23.9804C60.9415 25.6657 60.0302 26.4253 58.711 26.4253C57.5598 26.4253 56.6245 25.7369 56.6245 24.2653V17.5004H53.0269V24.7875C53.0269 27.9919 55.0895 29.7009 57.5119 29.7009C59.0948 29.7009 60.294 29.1312 60.9415 28.253V29.3686H64.5391V17.5004H60.9415ZM74.2045 20.9184V17.5004H71.7342V14.1773L68.1366 15.2454V17.5004H66.2179V20.9184H68.1366V25.1198C68.1366 28.4429 69.5037 29.8433 74.2045 29.3686V26.1404C72.6216 26.2354 71.7342 26.1404 71.7342 25.1198V20.9184H74.2045ZM83.5102 20.9184V17.5004H81.0399V14.1773L77.4423 15.2454V17.5004H75.5236V20.9184H77.4423V25.1198C77.4423 28.4429 78.8094 29.8433 83.5102 29.3686V26.1404C81.9273 26.2354 81.0399 26.1404 81.0399 25.1198V20.9184H83.5102ZM89.0025 24.8587H97.5167C97.6126 24.4077 97.6606 23.9329 97.6606 23.4345C97.6606 19.8503 95.0703 17.1681 91.5687 17.1681C87.7793 17.1681 85.1891 19.8978 85.1891 23.4345C85.1891 26.9712 87.7313 29.7009 91.8325 29.7009C94.111 29.7009 95.8858 28.8701 97.061 27.256L94.1829 25.6182C93.7033 26.1404 92.8638 26.5202 91.8805 26.5202C90.5614 26.5202 89.4582 26.093 89.0025 24.8587ZM88.9305 22.2002C89.2663 20.9896 90.1777 20.325 91.5447 20.325C92.624 20.325 93.7033 20.8235 94.087 22.2002H88.9305ZM103.297 19.6129V17.5004H99.6992V29.3686H103.297V24.0042C103.297 21.6543 105.407 21.0608 106.894 21.2982V17.263C105.383 17.263 103.776 18.0226 103.297 19.6129ZM118.872 16.4085L118.886 12.7531H108.693V29.3686H112.53V23.2683H117.553L117.567 19.6129H112.53V16.4085H118.872ZM121.045 29.3686H124.642V12.041H121.045V29.3686ZM133.037 29.7009C136.562 29.7009 139.392 26.9712 139.392 23.4345C139.392 19.8978 136.562 17.1681 133.037 17.1681C129.511 17.1681 126.681 19.8978 126.681 23.4345C126.681 26.9712 129.511 29.7009 133.037 29.7009ZM133.037 26.2354C131.478 26.2354 130.278 25.1198 130.278 23.4345C130.278 21.7492 131.478 20.6336 133.037 20.6336C134.595 20.6336 135.795 21.7492 135.795 23.4345C135.795 25.1198 134.595 26.2354 133.037 26.2354ZM154.622 17.5004L152.895 23.8617L151.024 17.5004H147.667L145.796 23.8617L144.069 17.5004H140.232L144.069 29.3686H147.427L149.345 23.031L151.264 29.3686H154.622L158.459 17.5004H154.622Z" fill="white"/>
</svg>
