<svg alt="Logo LinkedIn" class="svg-linkedin" version="1.1"
	 id="svg3070" inkscape:version="0.48.0 r9654" sodipodi:docname="New document 4" xmlns:cc="http://creativecommons.org/ns#" xmlns:dc="http://purl.org/dc/elements/1.1/" xmlns:inkscape="http://www.inkscape.org/namespaces/inkscape" xmlns:rdf="http://www.w3.org/1999/02/22-rdf-syntax-ns#" xmlns:sodipodi="http://sodipodi.sourceforge.net/DTD/sodipodi-0.dtd" xmlns:svg="http://www.w3.org/2000/svg"
	 xmlns="http://www.w3.org/2000/svg" xmlns:xlink="http://www.w3.org/1999/xlink" x="0px" y="0px" viewBox="0 0 78.5 79.5"
	 style="enable-background:new 0 0 78.5 79.5;" xml:space="preserve">
<style type="text/css">
	.svg-linkedin .st0{fill:#006699;}
	.svg-linkedin .st1{fill-rule:evenodd;clip-rule:evenodd;fill:#FFFFFF;}
</style>
<sodipodi:namedview  bordercolor="#666666" borderopacity="1.0" fit-margin-bottom="0" fit-margin-left="0" fit-margin-right="0" fit-margin-top="0" id="base" inkscape:current-layer="layer1" inkscape:cx="142.93233" inkscape:cy="33.703355" inkscape:document-units="px" inkscape:pageopacity="0.0" inkscape:pageshadow="2" inkscape:window-height="750" inkscape:window-maximized="1" inkscape:window-width="1280" inkscape:window-x="-8" inkscape:window-y="-8" inkscape:zoom="2.8" pagecolor="#ffffff" showgrid="false">
	</sodipodi:namedview>
<path id="path14" inkscape:connector-curvature="0" class="st0" d="M0,6.1C0,3,2.6,0.4,5.8,0.4h66.9c3.2,0,5.8,2.5,5.8,5.7v67.7
	c0,3.1-2.6,5.7-5.8,5.7H5.8c-3.2,0-5.8-2.5-5.8-5.7V6.1z"/>
<path id="path28" inkscape:connector-curvature="0" class="st1" d="M23.8,66.5V30.9H11.9v35.7H23.8z M17.9,26c4.1,0,6.7-2.7,6.7-6.2
	c-0.1-3.5-2.6-6.2-6.6-6.2c-4.1,0-6.7,2.7-6.7,6.2C11.2,23.3,13.8,26,17.9,26L17.9,26L17.9,26z"/>
<path id="path30" inkscape:connector-curvature="0" class="st1" d="M30.3,66.5h11.9V46.6c0-1.1,0.1-2.1,0.4-2.9
	c0.9-2.1,2.8-4.3,6.1-4.3c4.3,0,6,3.3,6,8.1v19.1h11.9V46.1c0-11-5.8-16-13.6-16c-6.4,0-9.2,3.6-10.8,6h0.1v-5.2H30.3
	C30.5,34.2,30.3,66.5,30.3,66.5L30.3,66.5z"/>
</svg>
